<svg width="565" height="480" viewBox="0 0 565 480" fill="none" xmlns="http://www.w3.org/2000/svg">
<mask id="mask0_420_361" style="mask-type:luminance" maskUnits="userSpaceOnUse" x="-89" y="-97" width="716" height="807">
<path d="M626.039 224.699L122.943 -96.8965L-88.7455 387.483L414.344 709.086L626.039 224.699Z" fill="white"/>
</mask>
<g mask="url(#mask0_420_361)">
<mask id="mask1_420_361" style="mask-type:luminance" maskUnits="userSpaceOnUse" x="-89" y="-97" width="716" height="807">
<path d="M626.039 224.699L122.943 -96.8965L-88.7455 387.483L414.344 709.086L626.039 224.699Z" fill="white"/>
</mask>
<g mask="url(#mask1_420_361)">
<path d="M189.03 400.211C192.347 401.401 195.864 399.076 196.873 395.002C197.863 390.982 195.941 386.736 192.572 385.508C190.405 384.746 188.393 384.077 186.451 383.533C184.362 382.895 182.292 382.351 180.151 381.83C176.744 380.975 173.375 383.696 172.668 387.817C171.954 391.93 174.159 395.974 177.612 396.868C179.534 397.319 181.424 397.824 183.333 398.431C185.378 399.037 187.287 399.643 189.03 400.211ZM143.12 393.719C146.592 393.54 149.317 389.932 149.118 385.702C148.97 381.496 145.994 378.199 142.49 378.44C132.705 379 122.971 380.757 113.392 383.619C103.813 386.488 94.5165 390.461 85.6059 395.453C82.4557 397.241 81.1056 401.797 82.5843 405.607C84.0565 409.417 87.8239 411.05 91.0256 409.3C99.2676 404.651 107.773 401.027 116.459 398.446C125.093 395.826 134.068 394.209 143.12 393.719ZM57.9868 435.356C60.6227 432.549 60.8928 427.681 58.5397 424.556C56.2189 421.368 52.2457 421.072 49.6098 423.887C47.7004 425.916 45.7074 428.124 43.6566 430.613C41.7664 432.891 39.9535 435.138 38.1855 437.416L38.0826 437.509C33.7559 442.874 29.0177 444.188 25.366 442.859C24.0352 442.392 22.8587 441.568 21.8879 440.557C21.0007 439.523 20.2614 438.279 19.8563 436.856C18.7377 433.116 19.5928 427.938 23.8038 422.262L23.9581 422.052C50.6063 387.024 85.4387 365.214 122.258 357.913C159.07 350.62 197.824 357.804 232.329 380.711C233.878 381.706 235.479 382.88 237.209 384.062C238.584 385.018 240.153 386.254 241.979 387.654C244.949 389.94 248.819 388.851 250.709 385.259C252.6 381.667 251.732 376.924 248.729 374.7C247.231 373.581 245.56 372.282 243.605 370.883C242.011 369.701 240.282 368.519 238.379 367.306C201.296 342.674 159.72 334.922 120.233 342.751C80.6941 350.558 43.2965 373.985 14.6296 411.594C14.5267 411.68 14.4753 411.804 14.4238 411.921C6.65115 422.371 5.41034 433.28 7.98195 441.895C9.08131 445.689 10.965 448.993 13.3759 451.692C15.7546 454.304 18.6091 456.279 21.7529 457.437C29.4549 460.19 38.9441 458.122 46.9225 448.348C47.0575 448.2 47.1861 448.053 47.3147 447.905C49.0055 445.65 50.7928 443.465 52.5029 441.459C54.1359 439.476 55.9681 437.478 57.9868 435.356ZM307.986 408.391C310.641 412.722 310.808 417.325 309.503 420.901C308.937 422.48 308.05 423.926 307.021 424.968C306.038 426.048 304.855 426.842 303.556 427.331C300.522 428.412 296.664 427.261 292.929 422.472C290.814 419.261 288.519 416.011 286.043 412.729C283.62 409.471 281.144 406.338 278.566 403.298C276.091 400.32 272.086 400.398 269.598 403.453C267.187 406.478 267.251 411.322 269.727 414.3C272.131 417.154 274.458 420.038 276.683 423.008C278.83 425.854 281.003 428.949 283.221 432.222C283.369 432.471 283.542 432.665 283.742 432.945C291.212 442.524 299.789 444.593 307.105 442.066C310.216 440.962 313.065 438.987 315.469 436.413C317.848 433.909 319.757 430.714 321.088 427.223C324.155 418.88 323.968 408.461 318.118 399.138C318.015 398.92 317.893 398.765 317.796 398.547C306.584 381.698 293.668 366.699 279.421 353.722C265.194 340.831 249.694 329.992 233.152 321.665C222.814 316.455 212.354 312.241 201.746 309.108C190.862 305.865 179.99 303.641 169.093 302.483C165.602 302.11 162.529 305.189 162.227 309.403C161.918 313.625 164.509 317.373 167.994 317.746C178.338 318.85 188.631 320.942 198.737 323.912C208.812 326.944 218.693 330.863 228.356 335.722C243.888 343.56 258.521 353.761 271.919 365.891C285.272 377.989 297.397 392.171 307.992 408.087L307.986 408.391ZM20.6471 325.42C20.75 325.335 20.93 325.218 21.0329 325.125C50.9921 301.278 84.5773 286.419 119.236 280.844C153.946 275.293 189.666 279.149 223.74 292.795L225.926 293.65C226.202 293.751 226.202 293.751 228.086 294.568C231.377 295.975 234.991 293.868 236.154 289.887C237.318 285.906 235.576 281.536 232.284 280.129C231.853 279.935 231.731 279.935 229.995 279.211L227.655 278.255C191.749 263.824 154.056 259.796 117.494 265.628C81.0092 271.436 45.5788 287.134 14.0509 312.218C3.24377 320.102 -0.105752 330.98 0.929319 340.94C1.33435 344.835 2.45943 348.575 4.11811 351.81C5.75751 355.099 7.9048 357.944 10.3993 360.16C16.7768 365.79 25.2824 367.43 33.0487 361.389C33.2287 361.272 33.3573 361.124 33.5373 361.008C39.2205 356.195 45.1352 351.763 51.2107 347.673C57.3954 343.49 63.6958 339.773 70.1698 336.391C73.3908 334.735 74.8952 330.272 73.5258 326.377C72.15 322.481 68.4597 320.662 65.2388 322.318C58.3854 325.84 51.6478 329.821 45.0774 334.3C38.7191 338.599 32.4186 343.327 26.3239 348.49L26.2918 348.552C23.4952 350.713 20.3385 350.014 17.8955 347.836C16.7511 346.795 15.7353 345.449 14.9317 343.925C14.1731 342.433 13.6716 340.792 13.4788 339.043C13.0737 334.681 14.9189 329.588 20.6471 325.42ZM48.2405 223.447L48.3883 223.392C75.0045 211.737 102.771 204.778 130.757 202.601C158.865 200.432 187.236 203.075 214.964 210.571C219.876 211.931 224.968 213.479 230.278 215.244C235.511 217.048 240.597 218.898 245.373 220.865C248.691 222.21 252.252 220.072 253.416 216.091C254.528 212.079 252.76 207.772 249.469 206.364C244.088 204.164 238.803 202.181 233.718 200.478C228.632 198.783 223.322 197.166 217.722 195.603C188.792 187.797 159.25 185.029 129.998 187.323C100.83 189.593 71.8864 196.886 44.1002 209.031C43.9459 209.086 43.8687 209.117 43.7144 209.171C32.7272 214.233 28.0148 223.999 27.674 233.858C27.5519 237.8 28.1112 241.649 29.2877 245.264C30.4642 248.88 32.2258 252.177 34.4566 254.844C34.6302 255.03 34.7524 255.186 34.926 255.372C40.5835 261.779 48.8126 264.64 57.9418 260.022C66.936 256.002 76.1167 252.581 85.3873 249.828C94.6901 247.022 104.179 244.798 113.887 243.258C117.34 242.675 119.795 238.819 119.313 234.643C118.837 230.46 115.649 227.498 112.19 228.073C102.308 229.737 92.3307 232.038 82.3721 235.04C72.6386 237.963 63.0722 241.532 53.6215 245.715C53.4672 245.77 53.2422 245.855 53.0622 245.972C49.327 247.923 45.9517 246.85 43.6951 244.401C43.618 244.277 43.4958 244.121 43.393 244.059C42.3772 242.862 41.5736 241.346 41.04 239.767C40.5385 238.127 40.2685 236.408 40.3263 234.659C40.5128 230.281 42.7951 225.935 48.2405 223.447ZM34.6495 131.869C23.0644 136.239 17.3747 145.305 16.1597 154.682C15.6518 158.772 15.9539 162.916 17.0469 166.718C18.0948 170.481 19.9013 173.965 22.2801 176.873C28.1498 183.964 37.5361 187.556 48.4912 182.86L48.5683 182.836C66.891 175.644 85.6059 170.489 104.488 167.293C123.897 164.059 143.583 162.846 163.32 163.849C166.837 164.004 169.736 160.747 169.916 156.525C170.045 152.264 167.351 148.765 163.86 148.539C143.486 147.528 123.023 148.773 102.765 152.178C83.1243 155.498 63.6701 160.879 44.6852 168.265C44.5309 168.32 44.4538 168.351 44.2995 168.405L44.2223 168.436L43.4573 168.724C38.179 170.691 33.878 169.105 31.3257 166.003C30.3099 164.813 29.5513 163.32 29.1013 161.711C28.6705 160.202 28.5034 158.538 28.7027 157.045C29.2106 152.956 32.2258 148.835 38.5326 146.44L38.6034 146.409C45.4953 143.687 52.535 141.215 59.6455 139.014C66.7817 136.76 73.9565 134.847 81.0349 133.167C84.468 132.343 86.7181 128.362 86.0366 124.202C85.3552 120.05 82.0635 117.329 78.6304 118.153C71.1213 119.934 63.7408 121.878 56.4503 124.195C49.1855 126.45 41.9207 129.008 34.6495 131.869ZM394.893 436.133C394.938 436.32 395.035 436.537 395.131 436.755C399.123 446.816 398.995 453.705 396.77 457.476C396.037 458.713 395.137 459.607 394.083 460.252C392.958 460.929 391.608 461.224 390.264 461.224C386.445 461.177 382.414 458.526 380.106 453.099C369.402 420.147 354.082 389.979 334.987 363.908C315.842 337.806 292.897 315.701 267.071 298.883C263.966 296.893 260.134 298.323 258.521 302.016C256.881 305.772 258.013 310.367 261.118 312.35C285.593 328.305 307.317 349.244 325.55 374.07C343.731 398.858 358.293 427.534 368.425 458.876C368.521 459.249 368.688 459.591 368.811 459.902C373.439 470.998 382.029 476.409 390.187 476.51C393.453 476.503 396.687 475.702 399.606 474.007C402.601 472.281 405.282 469.66 407.25 466.193C411.801 458.254 412.946 445.969 406.581 430.053C400.615 413.064 393.549 396.852 385.526 381.496C377.38 365.984 368.181 351.273 358.048 337.519C355.702 334.393 351.729 334.097 349.144 336.935C346.56 339.773 346.315 344.579 348.662 347.712C358.273 360.744 367.055 374.801 374.886 389.722C382.511 404.519 389.261 419.984 394.893 436.133ZM475.834 435.744C470.672 416.329 464.384 397.591 457.126 379.622C449.713 361.404 441.201 343.801 431.609 327.061C429.623 323.539 425.682 322.73 422.853 325.101C419.998 327.535 419.272 332.262 421.239 335.691C430.388 351.685 438.559 368.604 445.798 386.332C452.876 403.71 458.894 421.733 463.793 440.285C463.838 440.619 463.96 440.93 464.031 441.21C466.969 450.447 466.223 456.707 463.703 460.136C462.841 461.364 461.761 462.227 460.54 462.678C459.26 463.261 457.84 463.432 456.451 463.246C452.709 462.717 448.993 459.49 447.135 453.34L447.084 453.153C445.695 447.539 444.229 442.105 442.629 436.825C441.034 431.39 439.311 425.947 437.588 420.66C436.264 416.796 432.548 414.891 429.353 416.485C426.106 418.055 424.582 422.573 425.9 426.445C427.63 431.577 429.282 436.74 430.78 441.957C432.329 447.205 433.75 452.453 435.068 457.632C435.139 457.912 435.209 458.192 435.312 458.409C439.035 470.702 446.942 477.233 455.024 478.369C458.386 478.89 461.787 478.431 464.879 477.078C468.042 475.694 470.974 473.385 473.263 470.197C478.567 462.896 480.765 451.132 475.834 435.744ZM532.455 398.959L532.358 398.742C530.693 393.027 529.067 387.654 527.363 382.616C525.518 377.017 523.647 371.481 521.693 366.132C520.297 362.291 516.53 360.502 513.354 362.197C510.185 363.885 508.706 368.441 510.101 372.274C512.055 377.632 513.83 382.95 515.553 388.237C517.302 393.618 518.928 398.835 520.407 403.811C520.452 404.145 520.574 404.456 520.645 404.736C524.534 416.205 523.956 424.128 521.268 428.373C520.458 429.641 519.449 430.62 518.324 431.141C517.173 431.724 515.906 431.841 514.595 431.623C510.956 431.001 507.202 427.44 504.971 420.512L504.951 420.419C495.681 386.371 483.131 354.111 467.76 324.06C452.291 293.798 433.891 265.846 412.978 240.856C410.496 237.878 406.523 237.893 404.061 240.887C401.599 243.888 401.605 248.693 404.087 251.671C424.254 275.876 442.063 302.833 456.997 332.13C471.803 361.124 483.916 392.335 492.903 425.271C492.974 425.551 493.019 425.73 493.116 425.947C497.134 438.746 504.984 445.541 512.814 446.832C516.273 447.415 519.783 446.871 522.953 445.331C526.122 443.792 529.009 441.148 531.253 437.626C536.544 429.462 538.337 416.275 532.455 398.959ZM102.476 36.3257C90.9484 37.6397 83.3815 45.2751 80.2248 54.2556C78.939 57.9256 78.3604 61.891 78.5661 65.8175C78.7719 69.7518 79.7619 73.6395 81.6006 77.0529C85.6573 84.766 93.6357 90.2554 105.658 89.7267C105.96 89.7655 106.288 89.7422 106.616 89.7189L106.899 89.6645L107.175 89.61C107.381 89.5867 107.632 89.5945 107.863 89.5089C123.229 87.4796 138.722 86.6165 154.326 86.8265C170.18 87.0442 186.085 88.4593 201.894 90.9707C215.884 93.2567 229.809 96.4212 243.49 100.441C257.274 104.523 270.781 109.523 284.025 115.276C287.291 116.746 290.949 114.67 292.112 110.689C293.327 106.739 291.611 102.307 288.319 100.9C274.58 94.8273 260.636 89.7889 246.479 85.5435C232.348 81.3915 218.018 78.1181 203.546 75.7622C187.281 73.1108 170.868 71.6801 154.384 71.4469C138.452 71.2525 122.425 72.17 106.449 74.2693L106.249 74.3004C98.7147 74.9769 94.2015 72.4032 92.2664 68.7721C91.6042 67.497 91.2506 66.1052 91.1541 64.729C91.077 63.2828 91.3084 61.7277 91.842 60.2115C93.34 55.904 97.3389 52.1796 103.607 51.4643C103.736 51.4643 103.864 51.472 104.019 51.4098C111.354 50.4457 118.715 49.7304 126.096 49.2561C133.676 48.7585 141.056 48.4397 148.225 48.4552C151.696 48.4241 154.519 45.0418 154.525 40.781C154.499 36.5823 151.651 33.1378 148.18 33.1611C140.355 33.1922 132.75 33.4488 125.421 33.9542C117.835 34.4519 110.274 35.1905 102.701 36.2402L102.476 36.3257ZM547.614 291.286C547.711 291.504 547.807 291.722 547.904 291.94C552.044 299.622 552.404 305.966 550.732 310.243C550.147 311.728 549.26 313.026 548.232 313.913C547.196 314.807 546.001 315.351 544.676 315.592C541.32 316.082 537.354 314.169 533.856 308.835C516.903 271.265 496.298 236.486 472.716 205.291C448.858 173.7 421.895 145.693 392.373 121.94C389.48 119.623 385.532 120.595 383.617 124.094C381.701 127.593 382.504 132.367 385.397 134.684C414.026 157.706 440.192 184.889 463.356 215.578C486.417 246.05 506.456 279.927 522.921 316.564C523.068 316.961 523.287 317.334 523.512 317.715C530.127 328.219 538.697 331.913 546.245 330.77C549.62 330.218 552.841 328.717 555.548 326.338C558.299 323.99 560.511 320.833 562.054 317.015C565.506 308.384 565.346 296.581 558.621 283.838C536.576 236.509 509.085 193.45 477.262 155.91C445.258 118.177 408.902 86.0256 369.1 60.5847C355.13 51.6509 340.741 43.5412 325.955 36.3335C311.245 29.1024 296.188 22.8044 280.964 17.4861C277.641 16.2965 274.124 18.6213 273.115 22.6956C272.125 26.7154 274.047 30.9685 277.422 32.1892C292.241 37.4065 306.848 43.5645 321.204 50.5779C335.386 57.5523 349.427 65.4365 363.243 74.2693C401.997 99.0415 437.408 130.283 468.441 166.85C499.403 203.293 526.129 245.171 547.614 291.286ZM247.624 22.9832C250.999 23.9007 254.393 21.2649 255.152 17.1828C255.917 13.1008 253.738 8.99543 250.356 8.07794C245.643 6.84166 240.905 5.67536 236.186 4.59459C231.114 3.44384 226.376 2.42527 221.933 1.60109C218.5 0.955737 215.202 3.80928 214.668 7.96131C214.135 12.1133 216.494 16.0943 219.927 16.7397C224.897 17.6727 229.494 18.598 233.808 19.5699C238.469 20.6195 243.033 21.7547 247.624 22.9832ZM354.911 112.252C357.991 114.297 361.79 112.928 363.481 109.204C365.172 105.479 364.04 100.884 360.961 98.8393C335.913 82.1379 309.644 68.5156 282.559 58.0966C255.422 47.6466 227.462 40.3844 199.11 36.5201C196.989 36.2402 194.513 35.8981 191.71 35.5793C188.599 35.2216 186.143 34.965 184.298 34.794C180.813 34.4207 177.759 37.5853 177.457 41.8073C177.149 46.0293 179.765 49.7148 183.256 50.088C186.265 50.3835 188.663 50.6012 190.482 50.8345C192.559 51.0755 194.931 51.3554 197.638 51.7675C225.257 55.5541 252.432 62.5441 278.689 72.6676C305.022 82.76 330.539 96.048 354.911 112.252ZM494.511 333.491C496.169 337.184 500.072 338.514 503.068 336.484C506.121 334.486 507.272 329.798 505.543 326.136C485.034 280.875 458.746 239.899 427.81 204.708C397.105 169.743 361.777 140.5 322.952 118.394C319.77 116.59 316.041 118.231 314.524 121.994C313.032 125.843 314.395 130.353 317.501 132.18C355.175 153.71 389.377 182.004 419.143 215.905C449.16 249.961 474.613 289.63 494.511 333.491ZM377.072 222.319C379.811 225.002 383.771 224.434 385.957 221.184C388.175 217.872 387.705 213.082 385.018 210.439C382.061 207.538 378.846 204.475 375.465 201.38C372.347 198.542 369.061 195.666 365.615 192.688C362.774 190.254 358.807 191.125 356.795 194.561C354.776 197.998 355.496 202.795 358.344 205.237C361.436 207.834 364.548 210.672 367.814 213.611C370.752 216.262 373.838 219.17 377.072 222.319ZM327.999 181.888C331.053 183.995 334.897 182.657 336.614 179.026C338.356 175.341 337.25 170.683 334.248 168.607C314.742 155.21 294.279 143.991 273.295 135.142C252.207 126.232 230.49 119.631 208.329 115.385C192.906 112.415 177.412 110.65 161.918 110.044C146.354 109.46 130.815 109.989 115.302 111.77C111.798 112.166 109.271 115.891 109.599 120.128C109.92 124.366 113.006 127.421 116.51 127.033C131.464 125.353 146.495 124.817 161.507 125.345C176.493 125.944 191.511 127.639 206.349 130.462C227.706 134.513 248.71 140.966 269.148 149.612C289.451 158.251 309.265 169.058 327.999 181.888ZM398.538 300.423C400.808 303.572 404.807 303.96 407.443 301.153C410.053 298.409 410.368 293.572 408.047 290.385C394.244 271.257 379.02 253.623 362.497 237.792C346.071 222.024 328.443 208.122 309.818 196.218C294.253 186.265 277.994 177.736 261.176 170.777C245.463 164.222 229.404 159.067 213.08 155.374L212.952 155.366C210.959 154.946 209.217 154.534 207.757 154.215C205.687 153.819 203.945 153.407 202.556 153.212C199.123 152.567 195.825 155.42 195.291 159.572C194.758 163.724 197.117 167.713 200.55 168.359C202.569 168.716 204.26 169.105 205.571 169.323C207.391 169.711 208.934 169.991 210.271 170.31L210.316 170.341L210.547 170.403C226.337 173.996 241.85 178.949 256.978 185.215C272.967 191.871 288.647 200.113 303.82 209.809C321.892 221.363 338.89 234.791 354.596 249.86C370.604 264.975 385.282 281.948 398.538 300.423ZM410.419 387.265C412.123 390.99 415.974 392.288 419.002 390.196C422.081 388.136 423.155 383.471 421.426 379.809C411.351 357.874 399.573 337.332 386.195 318.399C372.797 299.381 357.817 282.057 341.616 266.662C338.851 264.05 334.891 264.609 332.776 267.984C330.609 271.327 331.079 276.117 333.869 278.675C349.446 293.44 363.757 310.103 376.615 328.313C389.371 346.46 400.731 366.194 410.419 387.265ZM305.131 254.579C308.133 256.803 311.978 255.621 313.823 251.998C315.662 248.367 314.685 243.717 311.689 241.493C307.086 238.088 302.264 234.768 297.23 231.479C292.299 228.244 287.342 225.227 282.379 222.366C279.196 220.57 275.468 222.21 273.95 225.966C272.459 229.815 273.822 234.332 276.927 236.159C281.839 238.99 286.603 241.874 291.232 244.914C295.809 247.916 300.438 251.111 305.131 254.579ZM323.48 317.979C326.115 320.747 330.127 320.366 332.364 317.147C334.653 313.959 334.338 309.115 331.677 306.402C323.801 298.191 315.508 290.493 306.925 283.457C298.316 276.327 289.374 269.834 280.206 263.98C271.096 258.148 261.722 252.931 252.053 248.382C242.461 243.795 232.631 239.915 222.608 236.603C210.625 232.661 198.519 229.729 186.419 227.809C174.198 225.88 161.88 224.901 149.562 224.932C146.045 224.924 143.216 228.306 143.216 232.567C143.21 236.828 146.013 240.241 149.53 240.249C161.263 240.234 173.021 241.167 184.716 242.986C196.384 244.868 207.937 247.605 219.291 251.376C228.761 254.486 238.186 258.265 247.379 262.588C256.496 266.942 265.471 271.91 274.278 277.54C283.144 283.208 291.688 289.444 299.801 296.099C308.108 302.88 316.003 310.173 323.48 317.979ZM132.782 317.699C136.26 317.365 138.838 313.672 138.562 309.465C138.285 305.259 135.231 302.141 131.753 302.475C127.054 302.957 122.258 303.688 117.449 304.567C112.646 305.445 107.94 306.542 103.305 307.762C99.8976 308.68 97.7439 312.731 98.5025 316.852C99.2611 320.98 102.604 323.585 106.018 322.668C110.525 321.439 114.922 320.46 119.371 319.659C123.724 318.803 128.217 318.189 132.782 317.699Z" fill="#C21C21"/>
</g>
</g>
</svg>
