<svg width="1000" height="1000" viewBox="0 0 1000 1000" fill="none" xmlns="http://www.w3.org/2000/svg">
<path d="M681.038 999.247C510.319 999.663 371.604 861.605 371.209 690.886V690.886C370.814 520.167 511.331 381.428 682.05 381.012V381.012C855.488 380.589 998.893 520.84 999.295 694.278L999.998 998.469L681.038 999.247Z" fill="#D4B963"/>
<path d="M0 416.807C0 186.611 186.611 0 416.807 0H429.608C652.734 0 833.614 180.879 833.614 404.006V404.006C833.614 627.132 652.735 808.011 429.608 808.011H0V416.807Z" fill="white"/>
<mask id="mask0_411_356" style="mask-type:luminance" maskUnits="userSpaceOnUse" x="157" y="107" width="565" height="480">
<path d="M721.662 107.143H157.143V586.85H721.662V107.143Z" fill="white"/>
</mask>
<g mask="url(#mask0_411_356)">
<mask id="mask1_411_356" style="mask-type:luminance" maskUnits="userSpaceOnUse" x="68" y="10" width="716" height="807">
<path d="M783.182 331.842L280.086 10.2465L68.3975 494.626L571.487 816.229L783.182 331.842Z" fill="white"/>
</mask>
<g mask="url(#mask1_411_356)">
<mask id="mask2_411_356" style="mask-type:luminance" maskUnits="userSpaceOnUse" x="68" y="10" width="716" height="807">
<path d="M783.182 331.842L280.086 10.2465L68.3975 494.626L571.487 816.229L783.182 331.842Z" fill="white"/>
</mask>
<g mask="url(#mask2_411_356)">
<path d="M346.173 507.354C349.49 508.544 353.007 506.219 354.016 502.145C355.006 498.125 353.084 493.879 349.715 492.651C347.548 491.889 345.536 491.22 343.595 490.676C341.505 490.038 339.435 489.494 337.294 488.973C333.887 488.118 330.518 490.839 329.811 494.96C329.097 499.073 331.302 503.116 334.755 504.011C336.677 504.462 338.567 504.967 340.476 505.573C342.521 506.18 344.43 506.786 346.173 507.354ZM300.263 500.862C303.735 500.683 306.461 497.075 306.261 492.845C306.113 488.639 303.137 485.342 299.633 485.583C289.848 486.143 280.114 487.9 270.535 490.761C260.956 493.631 251.66 497.604 242.749 502.596C239.599 504.384 238.249 508.94 239.727 512.75C241.2 516.56 244.967 518.193 248.169 516.443C256.411 511.794 264.916 508.17 273.602 505.589C282.236 502.969 291.211 501.351 300.263 500.862ZM215.13 542.498C217.766 539.692 218.036 534.824 215.683 531.699C213.362 528.511 209.389 528.215 206.753 531.03C204.843 533.059 202.85 535.267 200.8 537.756C198.91 540.034 197.097 542.281 195.329 544.559L195.226 544.652C190.899 550.017 186.161 551.331 182.509 550.002C181.178 549.535 180.002 548.711 179.031 547.7C178.144 546.666 177.404 545.422 176.999 543.999C175.881 540.259 176.736 535.081 180.947 529.405L181.101 529.195C207.749 494.167 242.582 472.357 279.401 465.056C316.213 457.763 354.967 464.947 389.472 487.853C391.021 488.849 392.622 490.023 394.352 491.205C395.727 492.161 397.296 493.397 399.122 494.797C402.092 497.083 405.962 495.994 407.853 492.402C409.743 488.81 408.875 484.067 405.872 481.843C404.374 480.724 402.703 479.425 400.748 478.025C399.154 476.844 397.425 475.662 395.522 474.449C358.439 449.817 316.863 442.065 277.376 449.894C237.837 457.701 200.44 481.128 171.773 518.737C171.67 518.823 171.618 518.947 171.567 519.064C163.794 529.514 162.553 540.422 165.125 549.038C166.224 552.832 168.108 556.136 170.519 558.834C172.898 561.447 175.752 563.422 178.896 564.58C186.598 567.333 196.087 565.265 204.066 555.491C204.201 555.343 204.329 555.196 204.458 555.048C206.149 552.793 207.936 550.608 209.646 548.602C211.279 546.619 213.111 544.621 215.13 542.498ZM465.129 515.534C467.784 519.865 467.951 524.468 466.646 528.044C466.08 529.623 465.193 531.069 464.164 532.111C463.181 533.191 461.998 533.985 460.699 534.474C457.665 535.555 453.807 534.404 450.072 529.615C447.957 526.404 445.662 523.153 443.186 519.872C440.763 516.614 438.288 513.481 435.709 510.441C433.234 507.463 429.229 507.541 426.741 510.596C424.33 513.621 424.394 518.465 426.87 521.443C429.274 524.296 431.601 527.181 433.826 530.151C435.973 532.997 438.146 536.092 440.364 539.365C440.512 539.614 440.686 539.808 440.885 540.088C448.355 549.667 456.932 551.736 464.248 549.209C467.36 548.105 470.208 546.13 472.612 543.556C474.991 541.052 476.9 537.857 478.231 534.366C481.298 526.023 481.111 515.604 475.261 506.281C475.158 506.063 475.036 505.908 474.939 505.69C463.727 488.841 450.811 473.842 436.565 460.865C422.337 447.974 406.837 437.135 390.295 428.808C379.957 423.598 369.497 419.384 358.889 416.25C348.005 413.008 337.133 410.784 326.236 409.626C322.745 409.253 319.672 412.332 319.37 416.546C319.061 420.768 321.652 424.516 325.137 424.889C335.481 425.993 345.774 428.085 355.88 431.055C365.955 434.087 375.836 438.006 385.499 442.865C401.031 450.703 415.664 460.904 429.062 473.034C442.415 485.132 454.54 499.314 465.135 515.23L465.129 515.534ZM177.79 432.563C177.893 432.478 178.073 432.361 178.176 432.268C208.135 408.421 241.72 393.562 276.379 387.987C311.089 382.436 346.809 386.292 380.883 399.938L383.069 400.793C383.345 400.894 383.345 400.894 385.229 401.711C388.521 403.118 392.134 401.011 393.297 397.03C394.461 393.049 392.719 388.679 389.427 387.272C388.996 387.077 388.874 387.077 387.138 386.354L384.798 385.398C348.892 370.967 311.199 366.939 274.637 372.771C238.152 378.579 202.722 394.277 171.194 419.361C160.387 427.245 157.037 438.122 158.072 448.083C158.477 451.978 159.602 455.718 161.261 458.953C162.901 462.242 165.048 465.087 167.542 467.303C173.92 472.933 182.426 474.573 190.192 468.532C190.372 468.415 190.5 468.267 190.68 468.151C196.364 463.338 202.278 458.906 208.354 454.816C214.538 450.633 220.839 446.916 227.313 443.534C230.534 441.878 232.038 437.415 230.669 433.519C229.293 429.624 225.603 427.805 222.382 429.461C215.529 432.983 208.791 436.964 202.22 441.443C195.862 445.742 189.562 450.47 183.467 455.633L183.435 455.695C180.638 457.856 177.482 457.156 175.039 454.979C173.894 453.938 172.878 452.592 172.075 451.068C171.316 449.576 170.815 447.935 170.622 446.186C170.217 441.824 172.062 436.731 177.79 432.563ZM205.384 330.59L205.531 330.535C232.148 318.88 259.914 311.921 287.9 309.744C316.008 307.575 344.379 310.218 372.107 317.714C377.019 319.074 382.111 320.622 387.421 322.387C392.654 324.191 397.74 326.041 402.516 328.008C405.834 329.353 409.396 327.215 410.559 323.234C411.671 319.222 409.903 314.915 406.612 313.507C401.231 311.307 395.946 309.324 390.861 307.621C385.775 305.926 380.465 304.309 374.865 302.746C345.935 294.94 316.393 292.172 287.141 294.466C257.973 296.736 229.029 304.029 201.243 316.174C201.089 316.229 201.012 316.26 200.857 316.314C189.87 321.376 185.158 331.142 184.817 341.001C184.695 344.943 185.254 348.792 186.431 352.407C187.607 356.023 189.369 359.32 191.6 361.986C191.773 362.173 191.895 362.329 192.069 362.515C197.727 368.922 205.956 371.783 215.085 367.165C224.079 363.145 233.26 359.724 242.53 356.971C251.833 354.164 261.322 351.941 271.03 350.401C274.483 349.818 276.938 345.962 276.456 341.786C275.981 337.603 272.792 334.641 269.333 335.216C259.452 336.88 249.474 339.181 239.515 342.183C229.782 345.106 220.215 348.675 210.765 352.858C210.61 352.913 210.385 352.998 210.205 353.115C206.47 355.066 203.095 353.993 200.838 351.544C200.761 351.42 200.639 351.264 200.536 351.202C199.52 350.005 198.717 348.489 198.183 346.91C197.682 345.27 197.412 343.551 197.469 341.802C197.656 337.424 199.938 333.078 205.384 330.59ZM191.793 239.012C180.207 243.382 174.518 252.448 173.303 261.825C172.795 265.915 173.097 270.059 174.19 273.861C175.238 277.624 177.044 281.108 179.423 284.015C185.293 291.107 194.679 294.699 205.634 290.002L205.711 289.979C224.034 282.787 242.749 277.632 261.631 274.436C281.04 271.202 300.726 269.989 320.463 270.992C323.98 271.147 326.879 267.889 327.059 263.667C327.188 259.407 324.494 255.908 321.003 255.682C300.629 254.671 280.166 255.915 259.908 259.321C240.267 262.641 220.813 268.022 201.828 275.408C201.674 275.463 201.597 275.494 201.443 275.548L201.365 275.579L200.6 275.867C195.322 277.834 191.021 276.248 188.469 273.146C187.453 271.956 186.694 270.463 186.244 268.854C185.814 267.345 185.646 265.681 185.846 264.188C186.354 260.099 189.369 255.978 195.676 253.583L195.746 253.552C202.638 250.83 209.678 248.358 216.789 246.157C223.925 243.903 231.1 241.99 238.178 240.31C241.611 239.486 243.861 235.505 243.18 231.345C242.498 227.193 239.207 224.472 235.773 225.296C228.264 227.077 220.884 229.021 213.593 231.338C206.329 233.592 199.064 236.151 191.793 239.012ZM552.036 543.276C552.081 543.463 552.178 543.68 552.274 543.898C556.266 553.959 556.138 560.848 553.913 564.619C553.18 565.856 552.28 566.75 551.226 567.395C550.101 568.072 548.751 568.367 547.407 568.367C543.588 568.32 539.557 565.669 537.249 560.242C526.545 527.29 511.225 497.122 492.131 471.051C472.985 444.949 450.04 422.844 424.214 406.026C421.109 404.035 417.277 405.466 415.664 409.159C414.024 412.915 415.156 417.51 418.261 419.493C442.736 435.448 464.46 456.387 482.693 481.213C500.874 506.001 515.436 534.677 525.568 566.019C525.664 566.392 525.831 566.734 525.954 567.045C530.583 578.141 539.172 583.552 547.33 583.653C550.596 583.646 553.83 582.845 556.749 581.15C559.745 579.424 562.425 576.803 564.393 573.335C568.944 565.397 570.089 553.112 563.724 537.196C557.758 520.207 550.692 503.995 542.669 488.639C534.523 473.127 525.324 458.416 515.191 444.662C512.845 441.536 508.872 441.24 506.287 444.078C503.703 446.916 503.458 451.722 505.805 454.855C515.416 467.886 524.198 481.944 532.029 496.865C539.654 511.662 546.404 527.127 552.036 543.276ZM632.977 542.887C627.815 523.472 621.527 504.734 614.269 486.765C606.856 468.547 598.344 450.944 588.752 434.204C586.766 430.682 582.825 429.873 579.996 432.244C577.141 434.678 576.415 439.405 578.382 442.834C587.531 458.828 595.702 475.747 602.941 493.475C610.019 510.853 616.037 528.876 620.936 547.428C620.981 547.762 621.103 548.073 621.174 548.353C624.112 557.59 623.366 563.85 620.846 567.278C619.984 568.507 618.904 569.37 617.683 569.821C616.403 570.404 614.983 570.575 613.594 570.389C609.852 569.86 606.136 566.633 604.278 560.483L604.227 560.296C602.838 554.682 601.372 549.247 599.772 543.968C598.177 538.533 596.454 533.09 594.731 527.803C593.407 523.939 589.691 522.034 586.496 523.628C583.249 525.198 581.725 529.716 583.043 533.588C584.773 538.72 586.425 543.883 587.923 549.1C589.472 554.348 590.893 559.596 592.211 564.775C592.282 565.055 592.353 565.335 592.455 565.552C596.178 577.845 604.085 584.376 612.167 585.512C615.529 586.033 618.93 585.574 622.022 584.221C625.185 582.837 628.117 580.528 630.406 577.34C635.71 570.039 637.909 558.275 632.977 542.887ZM689.598 506.102L689.501 505.884C687.836 500.17 686.21 494.797 684.506 489.758C682.661 484.16 680.79 478.624 678.836 473.275C677.441 469.434 673.673 467.645 670.497 469.34C667.328 471.028 665.849 475.584 667.244 479.417C669.199 484.774 670.973 490.093 672.696 495.38C674.445 500.761 676.071 505.978 677.55 510.954C677.595 511.288 677.717 511.599 677.788 511.879C681.677 523.348 681.099 531.271 678.411 535.516C677.601 536.784 676.592 537.763 675.467 538.284C674.316 538.867 673.05 538.984 671.738 538.766C668.099 538.144 664.345 534.583 662.114 527.655L662.094 527.562C652.824 493.514 640.274 461.254 624.903 431.202C609.434 400.941 591.035 372.989 570.121 347.999C567.639 345.021 563.666 345.036 561.204 348.03C558.742 351.031 558.748 355.836 561.23 358.814C581.397 383.019 599.206 409.976 614.14 439.273C628.946 468.267 641.059 499.478 650.046 532.414C650.117 532.694 650.162 532.873 650.259 533.09C654.277 545.889 662.127 552.684 669.957 553.975C673.416 554.558 676.926 554.014 680.096 552.474C683.265 550.935 686.152 548.291 688.396 544.769C693.687 536.605 695.48 523.418 689.598 506.102ZM259.619 143.469C248.091 144.783 240.525 152.418 237.368 161.399C236.082 165.069 235.503 169.034 235.709 172.96C235.915 176.895 236.905 180.782 238.744 184.196C242.8 191.909 250.779 197.398 262.801 196.87C263.103 196.908 263.431 196.885 263.759 196.862L264.042 196.807L264.318 196.753C264.524 196.73 264.775 196.737 265.006 196.652C280.372 194.623 295.866 193.759 311.469 193.969C327.323 194.187 343.228 195.602 359.037 198.114C373.027 200.4 386.952 203.564 400.633 207.584C414.417 211.666 427.924 216.666 441.168 222.419C444.434 223.889 448.092 221.813 449.255 217.832C450.471 213.882 448.754 209.45 445.462 208.043C431.723 201.97 417.779 196.932 403.622 192.686C389.491 188.534 375.161 185.261 360.689 182.905C344.424 180.254 328.011 178.823 311.527 178.59C295.595 178.395 279.568 179.313 263.592 181.412L263.393 181.443C255.858 182.12 251.345 179.546 249.409 175.915C248.747 174.64 248.394 173.248 248.297 171.872C248.22 170.426 248.452 168.871 248.985 167.354C250.483 163.047 254.482 159.323 260.75 158.607C260.879 158.607 261.007 158.615 261.162 158.553C268.497 157.589 275.858 156.873 283.239 156.399C290.819 155.901 298.199 155.583 305.368 155.598C308.839 155.567 311.662 152.185 311.668 147.924C311.642 143.725 308.794 140.281 305.323 140.304C297.498 140.335 289.893 140.592 282.564 141.097C274.978 141.595 267.417 142.333 259.844 143.383L259.619 143.469ZM704.757 398.429C704.854 398.647 704.95 398.865 705.047 399.083C709.187 406.765 709.547 413.109 707.876 417.386C707.29 418.871 706.403 420.169 705.375 421.056C704.34 421.95 703.144 422.494 701.819 422.735C698.463 423.225 694.497 421.312 690.999 415.978C674.046 378.408 653.441 343.629 629.859 312.434C606.001 280.843 579.038 252.836 549.516 229.083C546.623 226.766 542.675 227.738 540.76 231.237C538.844 234.735 539.647 239.51 542.54 241.827C571.169 264.849 597.335 292.032 620.499 322.721C643.56 353.193 663.599 387.07 680.064 423.707C680.211 424.104 680.43 424.477 680.655 424.858C687.271 435.362 695.84 439.056 703.388 437.913C706.763 437.361 709.984 435.86 712.691 433.481C715.442 431.132 717.654 427.976 719.197 424.158C722.649 415.527 722.489 403.724 715.764 390.981C693.719 343.652 666.228 300.592 634.405 263.053C602.401 225.32 566.045 193.169 526.243 167.728C512.273 158.794 497.885 150.684 483.098 143.476C468.388 136.245 453.331 129.947 438.108 124.629C434.784 123.439 431.267 125.764 430.258 129.838C429.268 133.858 431.19 138.111 434.565 139.332C449.384 144.549 463.991 150.707 478.347 157.721C492.529 164.695 506.57 172.579 520.386 181.412C559.14 206.184 594.551 237.426 625.584 273.993C656.546 310.436 683.272 352.314 704.757 398.429ZM404.767 130.126C408.142 131.044 411.536 128.408 412.295 124.326C413.06 120.244 410.881 116.138 407.499 115.221C402.786 113.985 398.048 112.818 393.329 111.738C388.257 110.587 383.519 109.568 379.076 108.744C375.643 108.099 372.345 110.952 371.811 115.104C371.278 119.256 373.637 123.237 377.07 123.883C382.04 124.816 386.637 125.741 390.951 126.713C395.612 127.762 400.176 128.898 404.767 130.126ZM512.054 219.395C515.134 221.44 518.933 220.071 520.624 216.347C522.315 212.622 521.183 208.027 518.104 205.982C493.056 189.281 466.787 175.659 439.702 165.24C412.565 154.79 384.605 147.527 356.253 143.663C354.132 143.383 351.657 143.041 348.853 142.722C345.742 142.365 343.286 142.108 341.441 141.937C337.956 141.564 334.902 144.728 334.6 148.95C334.292 153.172 336.908 156.858 340.399 157.231C343.408 157.526 345.806 157.744 347.626 157.977C349.702 158.218 352.074 158.498 354.781 158.91C382.4 162.697 409.576 169.687 435.832 179.811C462.165 189.903 487.682 203.191 512.054 219.395ZM651.654 440.634C653.312 444.327 657.215 445.657 660.211 443.627C663.265 441.629 664.415 436.941 662.686 433.278C642.177 388.018 615.889 347.042 584.953 311.851C554.248 276.886 518.92 247.642 480.095 225.537C476.913 223.733 473.184 225.374 471.667 229.137C470.175 232.986 471.538 237.496 474.644 239.323C512.318 260.853 546.52 289.147 576.286 323.048C606.303 357.104 631.756 396.773 651.654 440.634ZM534.215 329.462C536.954 332.145 540.914 331.577 543.1 328.327C545.318 325.015 544.848 320.225 542.161 317.582C539.204 314.681 535.989 311.618 532.608 308.523C529.49 305.685 526.204 302.808 522.758 299.831C519.917 297.397 515.95 298.268 513.938 301.704C511.919 305.141 512.639 309.938 515.487 312.38C518.58 314.977 521.691 317.815 524.957 320.754C527.895 323.405 530.981 326.313 534.215 329.462ZM485.142 289.031C488.196 291.138 492.041 289.8 493.757 286.169C495.499 282.484 494.394 277.826 491.391 275.75C471.886 262.353 451.422 251.134 430.438 242.285C409.351 233.375 387.633 226.774 365.472 222.528C350.049 219.558 334.555 217.793 319.061 217.187C303.497 216.603 287.958 217.132 272.445 218.913C268.941 219.309 266.414 223.034 266.742 227.271C267.064 231.509 270.149 234.564 273.653 234.176C288.607 232.496 303.638 231.96 318.65 232.488C333.636 233.087 348.654 234.782 363.492 237.605C384.85 241.655 405.853 248.109 426.291 256.755C446.594 265.394 466.408 276.201 485.142 289.031ZM555.681 407.565C557.951 410.714 561.95 411.103 564.586 408.296C567.196 405.552 567.511 400.715 565.19 397.528C551.387 378.4 536.163 360.766 519.64 344.935C503.214 329.167 485.586 315.265 466.961 303.361C451.396 293.408 435.137 284.879 418.319 277.92C402.606 271.365 386.547 266.21 370.224 262.517L370.095 262.509C368.102 262.089 366.36 261.677 364.9 261.358C362.83 260.962 361.088 260.55 359.699 260.355C356.266 259.71 352.968 262.563 352.434 266.715C351.901 270.867 354.26 274.856 357.693 275.502C359.712 275.859 361.403 276.248 362.714 276.466C364.534 276.854 366.077 277.134 367.414 277.453L367.459 277.484L367.69 277.546C383.48 281.139 398.993 286.092 414.121 292.358C430.11 299.014 445.79 307.256 460.963 316.952C479.035 328.506 496.033 341.934 511.739 357.002C527.747 372.118 542.425 389.091 555.681 407.565ZM567.562 494.408C569.266 498.132 573.117 499.431 576.145 497.339C579.224 495.279 580.298 490.614 578.569 486.952C568.494 465.017 556.716 444.475 543.338 425.542C529.94 406.524 514.96 389.2 498.759 373.805C495.994 371.192 492.034 371.752 489.919 375.127C487.752 378.47 488.222 383.26 491.012 385.818C506.589 400.583 520.9 417.246 533.758 435.456C546.514 453.603 557.874 473.337 567.562 494.408ZM462.274 361.722C465.277 363.946 469.121 362.764 470.966 359.141C472.805 355.51 471.828 350.86 468.832 348.636C464.229 345.231 459.407 341.911 454.373 338.622C449.442 335.387 444.485 332.37 439.522 329.509C436.34 327.713 432.611 329.353 431.093 333.109C429.602 336.958 430.965 341.475 434.07 343.302C438.982 346.133 443.746 349.017 448.375 352.057C452.952 355.059 457.581 358.254 462.274 361.722ZM480.623 425.122C483.258 427.89 487.27 427.509 489.508 424.29C491.796 421.102 491.481 416.258 488.82 413.545C480.944 405.334 472.651 397.636 464.068 390.6C455.459 383.47 446.517 376.977 437.349 371.122C428.239 365.291 418.865 360.074 409.196 355.525C399.604 350.938 389.774 347.058 379.751 343.746C367.768 339.803 355.662 336.872 343.562 334.952C331.341 333.023 319.023 332.044 306.705 332.075C303.188 332.067 300.359 335.449 300.359 339.71C300.353 343.971 303.156 347.384 306.673 347.392C318.406 347.377 330.164 348.31 341.859 350.129C353.527 352.011 365.08 354.748 376.434 358.519C385.904 361.629 395.329 365.408 404.522 369.731C413.639 374.085 422.614 379.053 431.421 384.683C440.287 390.351 448.831 396.587 456.945 403.242C465.251 410.022 473.146 417.316 480.623 425.122ZM289.925 424.842C293.403 424.508 295.981 420.815 295.705 416.608C295.428 412.402 292.375 409.284 288.896 409.618C284.197 410.1 279.401 410.831 274.592 411.71C269.789 412.588 265.083 413.685 260.448 414.905C257.041 415.823 254.887 419.874 255.646 423.995C256.404 428.123 259.747 430.728 263.161 429.811C267.668 428.582 272.065 427.602 276.514 426.802C280.867 425.946 285.36 425.332 289.925 424.842Z" fill="#C21C21"/>
</g>
</g>
</g>
</svg>
